HIERARCHY
ROOT Hips
{
	OFFSET 0.000000 0.000000 0.000000
	CHANNELS 6 Xposition Yposition Zposition Zrotation Yrotation Xrotation 
	JOINT LHipJoint
	{
		OFFSET 0.000000 0.000000 0.000000
		CHANNELS 3 Zrotation Yrotation Xrotation
		JOINT LeftUpLeg
		{
			OFFSET 1.363060 -1.794630 0.839290
			CHANNELS 3 Zrotation Yrotation Xrotation
			JOINT LeftLeg
			{
				OFFSET 2.448110 -6.726130 0.000000
				CHANNELS 3 Zrotation Yrotation Xrotation
				JOINT LeftFoot
				{
					OFFSET 2.562200 -7.039590 0.000000
					CHANNELS 3 Zrotation Yrotation Xrotation
					JOINT LeftToeBase
					{
						OFFSET 0.157640 -0.433110 2.322550
						CHANNELS 3 Zrotation Yrotation Xrotation
						End Site
						{
							OFFSET 0.000000 0.000000 0.000000
						}
					}
				}
			}
		}
	}
	JOINT RHipJoint
	{
		OFFSET 0.000000 0.000000 0.000000
		CHANNELS 3 Zrotation Yrotation Xrotation
		JOINT RightUpLeg
		{
			OFFSET -1.305520 -1.794630 0.839290
			CHANNELS 3 Zrotation Yrotation Xrotation
			JOINT RightLeg
			{
				OFFSET -2.542530 -6.985550 0.000000
				CHANNELS 3 Zrotation Yrotation Xrotation
				JOINT RightFoot
				{
					OFFSET -2.568260 -7.056230 0.000000
					CHANNELS 3 Zrotation Yrotation Xrotation
					JOINT RightToeBase
					{
						OFFSET -0.164730 -0.452590 2.363150
						CHANNELS 3 Zrotation Yrotation Xrotation
						End Site
						{
							OFFSET 0.000000 0.000000 0.000000
						}
					}
				}
			}
		}
	}
	JOINT LowerBack
	{
		OFFSET 0.000000 0.000000 0.000000
		CHANNELS 3 Zrotation Yrotation Xrotation
		JOINT Spine
		{
			OFFSET 0.028270 2.035590 -0.193380
			CHANNELS 3 Zrotation Yrotation Xrotation
			JOINT Spine1
			{
				OFFSET 0.056720 2.048850 -0.042750
				CHANNELS 3 Zrotation Yrotation Xrotation
				JOINT Neck
				{
					OFFSET 0.000000 0.000000 0.000000
					CHANNELS 3 Zrotation Yrotation Xrotation
					JOINT Neck1
					{
						OFFSET -0.054170 1.746240 0.172020
						CHANNELS 3 Zrotation Yrotation Xrotation
						JOINT Head
						{
							OFFSET 0.104070 1.761360 -0.123970
							CHANNELS 3 Zrotation Yrotation Xrotation
							End Site
							{
								OFFSET 0.000000 0.000000 0.000000
							}
						}
					}
				}
				JOINT LeftShoulder
				{
					OFFSET 0.000000 0.000000 0.000000
					CHANNELS 3 Zrotation Yrotation Xrotation
					JOINT LeftArm
					{
						OFFSET 3.362410 1.200890 -0.311210
						CHANNELS 3 Zrotation Yrotation Xrotation
						JOINT LeftForeArm
						{
							OFFSET 4.983000 -0.000000 -0.000000
							CHANNELS 3 Zrotation Yrotation Xrotation
							JOINT LeftHand
							{
								OFFSET 3.483560 -0.000000 -0.000000
								CHANNELS 3 Zrotation Yrotation Xrotation
								JOINT LeftFingerBase
								{
									OFFSET 0.000000 0.000000 0.000000
									CHANNELS 3 Zrotation Yrotation Xrotation
									JOINT LeftHandIndex1
									{
										OFFSET 0.715260 -0.000000 -0.000000
										CHANNELS 3 Zrotation Yrotation Xrotation
										End Site
										{
											OFFSET 0.000000 0.000000 0.000000
										}
									}
								}
								JOINT LThumb
								{
									OFFSET 0.000000 0.000000 0.000000
									CHANNELS 3 Zrotation Yrotation Xrotation
									End Site
									{
										OFFSET 0.000000 0.000000 0.000000
									}
								}
							}
						}
					}
				}
				JOINT RightShoulder
				{
					OFFSET 0.000000 0.000000 0.000000
					CHANNELS 3 Zrotation Yrotation Xrotation
					JOINT RightArm
					{
						OFFSET -3.136600 1.374050 -0.404650
						CHANNELS 3 Zrotation Yrotation Xrotation
						JOINT RightForeArm
						{
							OFFSET -5.241900 -0.000000 -0.000000
							CHANNELS 3 Zrotation Yrotation Xrotation
							JOINT RightHand
							{
								OFFSET -3.444170 -0.000000 -0.000000
								CHANNELS 3 Zrotation Yrotation Xrotation
								JOINT RightFingerBase
								{
									OFFSET 0.000000 0.000000 0.000000
									CHANNELS 3 Zrotation Yrotation Xrotation
									JOINT RightHandIndex1
									{
										OFFSET -0.622530 -0.000000 -0.000000
										CHANNELS 3 Zrotation Yrotation Xrotation
										End Site
										{
											OFFSET 0.000000 0.000000 0.000000
										}
									}
								}
								JOINT RThumb
								{
									OFFSET 0.000000 0.000000 0.000000
									CHANNELS 3 Zrotation Yrotation Xrotation
									End Site
									{
										OFFSET 0.000000 0.000000 0.000000
									}
								}
							}
						}
					}
				}
			}
		}
	}
}
MOTION
Frames: 11
Frame Time: 0.008333
2.388215 18.109782 0.424719 9.293607 83.314410 27.972769 -10.243388 1.321137 3.017086 -15.148693 1.432294 -34.984312 -3.086700 -0.497512 3.150576 -0.086747 1.001113 16.998065 0.937199 -0.000000 -53.154500 9.490324 -3.965341 -0.267585 8.889398 -7.010357 -2.653525 0.964926 -1.442024 17.052661 -0.408971 -1.308171 22.126166 -0.798499 0.000000 -65.764000 -1.848894 -0.204187 -3.325718 -1.300972 -0.216422 -3.998497 -7.834971 -0.134343 -2.112183 10.049218 -9.952722 -7.330526 -2.639423 -0.213322 0.131408 0.000000 0.000000 0.000000 5.555880 12.724277 -0.836104 -69.633680 30.779249 25.603143 179.908082 -65.785254 179.961860 2.525673 -9.491980 -0.212151 0.100995 0.559951 -0.000000 0.000000 0.000000 0.000000 0.000000 0.000000 0.000000 5.249410 -1.955504 -1.674802 88.848726 12.054298 38.165353 178.990750 72.444554 -179.986853 0.847604 13.465153 0.113326 -0.025017 -0.899704 -0.000000 0.000000 0.000000 0.000000 0.000000 0.000000 0.000000 
2.629562 18.075664 0.433364 10.461154 83.551044 28.885446 -10.236413 1.371271 2.947506 -15.823256 1.853736 -35.157532 -3.160343 -0.461342 3.476696 -0.125351 0.715514 17.094617 0.823200 0.000000 -52.938900 9.525186 -3.931231 -0.412323 8.650580 -7.542800 -2.945042 0.778546 -1.538153 19.362648 -0.691760 -3.599891 20.314045 -1.817900 -0.000000 -64.890800 -1.960741 -0.329073 -3.157702 -1.308551 -0.325676 -3.975031 -7.829050 -0.245967 -2.155205 10.072583 -9.917870 -7.259610 -2.650949 -0.214971 0.150728 0.000000 0.000000 0.000000 5.514466 12.450704 -0.829379 -69.815662 30.737123 25.500642 179.897350 -66.001618 179.960917 2.722024 -9.529906 -0.230685 0.095439 0.560817 -0.000000 0.000000 0.000000 0.000000 0.000000 0.000000 0.000000 5.332709 -2.001723 -1.658961 88.550126 11.812276 37.992716 179.018320 72.491983 -179.988518 0.733206 13.458035 0.098689 -0.024233 -0.896914 -0.000000 0.000000 0.000000 0.000000 0.000000 0.000000 0.000000 
2.867862 18.030562 0.441749 11.688991 83.812301 29.860217 -10.220930 1.409570 2.905175 -16.299059 1.978152 -35.253509 -3.171298 -0.406729 4.148980 -0.111707 0.828189 16.840559 0.867800 -0.000001 -52.066000 9.564498 -3.870360 -0.575741 8.422487 -8.009307 -3.284675 0.599815 -1.638196 21.804880 -1.001612 -5.888704 18.347390 -2.714100 0.000000 -63.507300 -2.058213 -0.452450 -2.974535 -1.313524 -0.433747 -3.945876 -7.821085 -0.355383 -2.191673 10.095165 -9.887210 -7.197073 -2.667956 -0.216845 0.166756 0.000000 0.000000 0.000000 5.483928 12.170312 -0.812658 -70.005420 30.509352 25.474125 179.888313 -66.317366 179.960132 2.905541 -9.550481 -0.247916 0.089832 0.561837 -0.000000 0.000000 0.000000 0.000000 0.000000 0.000000 0.000000 5.444604 -2.055385 -1.640918 88.202088 11.544507 37.765093 179.051188 72.556188 -179.990717 0.565379 13.451253 0.077156 -0.022344 -0.893884 -0.000000 0.000000 0.000000 0.000000 0.000000 0.000000 0.000000 
3.103289 17.974292 0.449819 12.908539 84.078663 30.834309 -10.197190 1.432709 2.896984 -16.556636 1.782966 -35.255504 -3.120062 -0.339785 5.122895 -0.046213 1.324001 16.215800 1.058200 0.000000 -50.563000 9.609465 -3.785977 -0.755883 8.200279 -8.408671 -3.687252 0.431921 -1.746247 24.377738 -1.324637 -8.067537 16.304974 -3.432400 0.000000 -61.716700 -2.137362 -0.568680 -2.785091 -1.315825 -0.535694 -3.912953 -7.811655 -0.457698 -2.221269 10.113224 -9.865313 -7.145566 -2.689464 -0.218850 0.178920 0.000000 0.000000 0.000000 5.458462 11.891408 -0.788138 -70.184976 30.102712 25.535398 179.881556 -66.720963 179.959523 3.069973 -9.556417 -0.263046 0.084318 0.563104 -0.000000 0.000000 0.000000 0.000000 0.000000 0.000000 0.000000 5.577513 -2.117361 -1.620588 87.818217 11.254259 37.487729 179.086859 72.638460 -179.993137 0.378884 13.431643 0.053321 -0.020250 -0.890182 0.000001 0.000000 0.000000 0.000000 0.000000 0.000000 0.000000 
3.336101 17.906624 0.457462 14.019925 84.329907 31.714843 -10.164833 1.439010 2.923360 -16.607894 1.283383 -35.182131 -3.013878 -0.264119 6.390992 0.067602 2.132922 15.178461 1.346900 -0.000001 -48.447500 9.659064 -3.683144 -0.945160 7.983474 -8.728860 -4.169612 0.275998 -1.864982 27.078139 -1.644544 -10.056366 14.249302 -3.947500 0.000000 -59.631800 -2.194726 -0.672138 -2.599913 -1.315393 -0.626621 -3.878682 -7.801366 -0.548178 -2.243865 10.123673 -9.852021 -7.106913 -2.714766 -0.220924 0.186901 0.000000 0.000000 0.000000 5.430869 11.624829 -0.757436 -70.337441 29.523451 25.693739 179.878098 -67.203286 179.959113 3.209961 -9.553560 -0.275875 0.078941 0.564769 -0.000000 0.000000 0.000000 0.000000 0.000000 0.000000 0.000000 5.725273 -2.183560 -1.598222 87.409073 10.940792 37.162512 179.123507 72.740352 -179.995490 0.207075 13.389540 0.031378 -0.018864 -0.885476 -0.000000 0.000000 0.000000 0.000000 0.000000 0.000000 0.000000 
3.566640 17.827434 0.464685 15.007438 84.549189 32.497425 -10.121122 1.426482 2.987074 -16.481288 0.482383 -35.057752 -2.862169 -0.184674 7.937442 0.229035 3.196754 13.702545 1.681400 -0.000000 -45.815300 9.714251 -3.567311 -1.135099 7.763373 -8.962068 -4.758620 0.131659 -1.996450 29.908458 -1.944776 -11.792903 12.221508 -4.252700 0.000001 -57.397199 -2.237129 -0.760475 -2.433478 -1.313866 -0.704253 -3.845449 -7.790699 -0.624713 -2.256776 10.126415 -9.847991 -7.084420 -2.743682 -0.223028 0.189931 0.000000 0.000000 0.000000 5.395298 11.386663 -0.721789 -70.445734 28.770270 25.959941 179.879161 -67.761007 179.958916 3.330720 -9.543809 -0.286801 0.073312 0.566834 -0.000000 0.000000 0.000000 0.000000 0.000000 0.000000 0.000000 5.889830 -2.252778 -1.574110 86.980469 10.604697 36.793516 179.159817 72.869142 -179.997539 0.075026 13.322221 0.014724 -0.018777 -0.879590 -0.000000 0.000000 0.000000 0.000000 0.000000 0.000000 0.000000 
3.795293 17.736699 0.471546 15.861084 84.720986 33.184299 -10.063216 1.395609 3.084558 -16.231293 -0.578577 -34.936673 -2.679770 -0.102515 9.778113 0.434680 4.423909 11.760381 1.988900 -0.000000 -42.758500 9.776115 -3.444250 -1.312570 7.533809 -9.095994 -5.486122 -0.003019 -2.140821 32.873492 -2.211446 -13.239368 10.240927 -4.357699 -0.000000 -55.155400 -2.271978 -0.832128 -2.301190 -1.312768 -0.767079 -3.816210 -7.779768 -0.686108 -2.258878 10.121540 -9.852923 -7.079846 -2.775885 -0.225139 0.187736 0.000000 0.000000 0.000000 5.342850 11.185605 -0.682578 -70.496034 27.850080 26.334015 179.885781 -68.388408 179.958933 3.443102 -9.528909 -0.296813 0.066885 0.569256 -0.000000 0.000000 0.000000 0.000000 0.000000 0.000000 0.000000 6.073047 -2.323570 -1.547855 86.536394 10.244230 36.385978 179.195435 73.037410 -179.999142 -0.003159 13.235668 0.005060 -0.020268 -0.872540 0.000000 0.000000 0.000000 0.000000 0.000000 0.000000 0.000000 
4.022181 17.634479 0.478248 16.609319 84.835748 33.805703 -9.990343 1.348713 3.200605 -15.932639 -1.810126 -34.888486 -2.485478 -0.012439 11.971148 0.676463 5.688825 9.324895 2.182299 -0.000000 -39.317401 9.846509 -3.319730 -1.467517 7.284286 -9.136658 -6.374736 -0.129301 -2.297971 35.982734 -2.431897 -14.359859 8.289959 -4.271700 0.000000 -52.844800 -2.308262 -0.888227 -2.205278 -1.313753 -0.815663 -3.793364 -7.769426 -0.733397 -2.257044 10.106850 -9.856089 -7.087818 -2.811553 -0.227358 0.181946 0.000000 0.000000 0.000000 5.258705 11.009149 -0.639320 -70.476143 26.791093 26.800834 179.899417 -69.066604 179.959183 3.532540 -9.531598 -0.305418 0.059999 0.572595 -0.000000 0.000000 0.000000 0.000000 0.000000 0.000000 0.000000 6.273221 -2.383770 -1.518296 86.084769 9.844060 35.932417 179.231952 73.259872 179.999692 -0.026280 13.130410 0.002486 -0.023438 -0.864197 0.000000 0.000000 0.000000 0.000000 0.000000 0.000000 0.000000 
4.247682 17.521283 0.484938 17.263674 84.885734 34.387560 -9.902704 1.287631 3.330059 -15.635458 -3.158021 -34.962983 -2.292989 0.086864 14.508868 0.952515 6.938214 6.433104 2.211200 -0.000000 -35.668300 9.926955 -3.197023 -1.584853 7.016306 -9.061679 -7.448023 -0.251786 -2.464631 39.219001 -2.604381 -15.178371 6.385074 -4.034000 -0.000000 -50.785300 -2.355329 -0.929331 -2.161910 -1.318146 -0.850364 -3.777594 -7.758017 -0.767047 -2.241207 10.087410 -9.868848 -7.116171 -2.849524 -0.229505 0.170514 0.000000 0.000000 0.000000 5.142206 10.882472 -0.593782 -70.382653 25.572223 27.363520 179.919890 -69.810665 179.959588 3.648724 -9.525874 -0.316298 0.050842 0.575959 -0.000000 0.000000 0.000000 0.000000 0.000000 0.000000 0.000000 6.499269 -2.448372 -1.486477 85.621251 9.417897 35.453702 179.269609 73.559131 179.998900 -0.010827 13.033097 0.004709 -0.027485 -0.855010 -0.000000 0.000000 0.000000 0.000000 0.000000 0.000000 0.000000 
4.471814 17.397932 0.491972 17.863799 84.867563 34.964633 -9.805074 1.216668 3.453068 -15.401357 -4.511116 -35.206010 -2.117899 0.203576 17.418240 1.252848 8.085795 3.129572 2.027401 -0.000000 -31.883600 10.019376 -3.079224 -1.657910 6.722381 -8.878932 -8.708504 -0.371791 -2.639102 42.572786 -2.725861 -15.695539 4.484100 -3.663000 0.000000 -48.747900 -2.420336 -0.958394 -2.164914 -1.327146 -0.873318 -3.771256 -7.747153 -0.789835 -2.225537 10.061382 -9.871105 -7.152502 -2.890700 -0.231829 0.156976 0.000000 0.000000 0.000000 4.974249 10.771676 -0.544414 -70.207421 24.242585 27.988947 179.948120 -70.589154 179.960172 3.762781 -9.550842 -0.328159 0.040352 0.580342 -0.000000 0.000000 0.000000 0.000000 0.000000 0.000000 0.000000 6.750038 -2.495646 -1.450130 85.153580 8.935344 34.931491 179.311716 73.954398 179.998282 0.025127 12.940864 0.009536 -0.032108 -0.844746 0.000000 0.000000 0.000000 0.000000 0.000000 0.000000 0.000000 
4.694612 17.265727 0.499489 18.338446 84.785363 35.466518 -9.705628 1.140636 3.557862 -15.255506 -5.785786 -35.639401 -1.968169 0.343188 20.670684 1.569733 9.099361 -0.492023 1.623800 0.000000 -28.108701 10.122342 -2.966671 -1.679993 6.416442 -8.580044 -10.149823 -0.493346 -2.817094 46.007474 -2.803060 -15.965355 2.595093 -3.202500 -0.000001 -46.918500 -2.501281 -0.976788 -2.213863 -1.339511 -0.885821 -3.772149 -7.734271 -0.803043 -2.201272 10.032551 -9.875981 -7.202765 -2.932941 -0.234074 0.139685 0.000000 0.000000 0.000000 4.757601 10.693628 -0.492272 -69.959788 22.780962 28.671702 179.982809 -71.414548 179.960838 3.918784 -9.577021 -0.344091 0.027099 0.584833 -0.000000 0.000000 0.000000 0.000000 0.000000 0.000000 0.000000 7.026734 -2.544106 -1.410900 84.680189 8.412076 34.386908 179.359177 74.469159 179.997597 0.044707 12.881290 0.012275 -0.036012 -0.833822 -0.000000 0.000000 0.000000 0.000000 0.000000 0.000000 0.000000 
